<?xml version="1.0" standalone="no"?><svg xmlns="http://www.w3.org/2000/svg" viewBox="0 0 1440 320"><path fill="#78c2ad" fill-opacity="1" d="M0,224L34.3,234.7C68.6,245,137,267,206,256C274.3,245,343,203,411,181.3C480,160,549,160,617,170.7C685.7,181,754,203,823,186.7C891.4,171,960,117,1029,133.3C1097.1,149,1166,235,1234,256C1302.9,277,1371,235,1406,213.3L1440,192L1440,0L1405.7,0C1371.4,0,1303,0,1234,0C1165.7,0,1097,0,1029,0C960,0,891,0,823,0C754.3,0,686,0,617,0C548.6,0,480,0,411,0C342.9,0,274,0,206,0C137.1,0,69,0,34,0L0,0Z"></path></svg>