<svg id="wave" style="transform:rotate(0deg); transition: 0.3s" viewBox="0 0 1440 470" version="1.1" xmlns="http://www.w3.org/2000/svg">
    <defs>
        <linearGradient id="sw-gradient-0" x1="0" x2="0" y1="1" y2="0">
            <stop stop-color="rgba(120, 194, 173, 1)" offset="0%"></stop>
            <stop stop-color="rgba(120, 194, 173, 1)" offset="100%"></stop>
        </linearGradient>
    </defs>
    <path style="transform:translate(0, 0px); opacity:1" fill="url(#sw-gradient-0)" d="M0,47L80,78.3C160,110,320,172,480,180.2C640,188,800,141,960,125.3C1120,110,1280,125,1440,125.3C1600,125,1760,110,1920,94C2080,78,2240,63,2400,47C2560,31,2720,16,2880,23.5C3040,31,3200,63,3360,109.7C3520,157,3680,219,3840,274.2C4000,329,4160,376,4320,329C4480,282,4640,141,4800,109.7C4960,78,5120,157,5280,211.5C5440,266,5600,298,5760,274.2C5920,251,6080,172,6240,164.5C6400,157,6560,219,6720,203.7C6880,188,7040,94,7200,109.7C7360,125,7520,251,7680,282C7840,313,8000,251,8160,258.5C8320,266,8480,345,8640,376C8800,407,8960,392,9120,336.8C9280,282,9440,188,9600,195.8C9760,204,9920,313,10080,321.2C10240,329,10400,235,10560,219.3C10720,204,10880,266,11040,274.2C11200,282,11360,235,11440,211.5L11520,188L11520,470L11440,470C11360,470,11200,470,11040,470C10880,470,10720,470,10560,470C10400,470,10240,470,10080,470C9920,470,9760,470,9600,470C9440,470,9280,470,9120,470C8960,470,8800,470,8640,470C8480,470,8320,470,8160,470C8000,470,7840,470,7680,470C7520,470,7360,470,7200,470C7040,470,6880,470,6720,470C6560,470,6400,470,6240,470C6080,470,5920,470,5760,470C5600,470,5440,470,5280,470C5120,470,4960,470,4800,470C4640,470,4480,470,4320,470C4160,470,4000,470,3840,470C3680,470,3520,470,3360,470C3200,470,3040,470,2880,470C2720,470,2560,470,2400,470C2240,470,2080,470,1920,470C1760,470,1600,470,1440,470C1280,470,1120,470,960,470C800,470,640,470,480,470C320,470,160,470,80,470L0,470Z"></path>
</svg>