<svg xmlns="http://www.w3.org/2000/svg" id="wave" version="1.1" viewBox="0 0 1440 170" style="transform:rotate(0deg);transition:.3s"><defs><linearGradient id="sw-gradient-0" x1="0" x2="0" y1="1" y2="0"><stop offset="0%" stop-color="rgba(120, 194, 173, 1)"/><stop offset="100%" stop-color="rgba(120, 194, 173, 1)"/></linearGradient></defs><path style="transform:translate(0,0);opacity:1" fill="url(#sw-gradient-0)" d="M0,34L48,34C96,34,192,34,288,39.7C384,45,480,57,576,68C672,79,768,91,864,79.3C960,68,1056,34,1152,25.5C1248,17,1344,34,1440,59.5C1536,85,1632,119,1728,130.3C1824,142,1920,130,2016,119C2112,108,2208,96,2304,87.8C2400,79,2496,74,2592,85C2688,96,2784,125,2880,113.3C2976,102,3072,51,3168,25.5C3264,0,3360,0,3456,2.8C3552,6,3648,11,3744,25.5C3840,40,3936,62,4032,65.2C4128,68,4224,51,4320,51C4416,51,4512,68,4608,87.8C4704,108,4800,130,4896,124.7C4992,119,5088,85,5184,62.3C5280,40,5376,28,5472,28.3C5568,28,5664,40,5760,42.5C5856,45,5952,40,6048,34C6144,28,6240,23,6336,36.8C6432,51,6528,85,6624,82.2C6720,79,6816,40,6864,19.8L6912,0L6912,170L6864,170C6816,170,6720,170,6624,170C6528,170,6432,170,6336,170C6240,170,6144,170,6048,170C5952,170,5856,170,5760,170C5664,170,5568,170,5472,170C5376,170,5280,170,5184,170C5088,170,4992,170,4896,170C4800,170,4704,170,4608,170C4512,170,4416,170,4320,170C4224,170,4128,170,4032,170C3936,170,3840,170,3744,170C3648,170,3552,170,3456,170C3360,170,3264,170,3168,170C3072,170,2976,170,2880,170C2784,170,2688,170,2592,170C2496,170,2400,170,2304,170C2208,170,2112,170,2016,170C1920,170,1824,170,1728,170C1632,170,1536,170,1440,170C1344,170,1248,170,1152,170C1056,170,960,170,864,170C768,170,672,170,576,170C480,170,384,170,288,170C192,170,96,170,48,170L0,170Z"/></svg>