<?xml version="1.0" standalone="no"?><svg xmlns="http://www.w3.org/2000/svg" viewBox="0 0 1440 320"><path fill="#78c2ad" fill-opacity="1" d="M0,192L26.7,160C53.3,128,107,64,160,64C213.3,64,267,128,320,160C373.3,192,427,192,480,160C533.3,128,587,64,640,64C693.3,64,747,128,800,138.7C853.3,149,907,107,960,74.7C1013.3,43,1067,21,1120,10.7C1173.3,0,1227,0,1280,10.7C1333.3,21,1387,43,1413,53.3L1440,64L1440,320L1413.3,320C1386.7,320,1333,320,1280,320C1226.7,320,1173,320,1120,320C1066.7,320,1013,320,960,320C906.7,320,853,320,800,320C746.7,320,693,320,640,320C586.7,320,533,320,480,320C426.7,320,373,320,320,320C266.7,320,213,320,160,320C106.7,320,53,320,27,320L0,320Z"></path></svg>