<svg id="visual" viewBox="0 0 960 540" width="960" height="540" xmlns="http://www.w3.org/2000/svg" xmlns:xlink="http://www.w3.org/1999/xlink" version="1.1"><path d="M0 185L53.3 187.7C106.7 190.3 213.3 195.7 320 194.7C426.7 193.7 533.3 186.3 640 184.5C746.7 182.7 853.3 186.3 906.7 188.2L960 190L960 0L906.7 0C853.3 0 746.7 0 640 0C533.3 0 426.7 0 320 0C213.3 0 106.7 0 53.3 0L0 0Z" fill="#fdfdfd"></path><path d="M0 298L53.3 298C106.7 298 213.3 298 320 296.2C426.7 294.3 533.3 290.7 640 291.5C746.7 292.3 853.3 297.7 906.7 300.3L960 303L960 188L906.7 186.2C853.3 184.3 746.7 180.7 640 182.5C533.3 184.3 426.7 191.7 320 192.7C213.3 193.7 106.7 188.3 53.3 185.7L0 183Z" fill="#8fccba"></path><path d="M0 379L53.3 379.8C106.7 380.7 213.3 382.3 320 382.3C426.7 382.3 533.3 380.7 640 382.5C746.7 384.3 853.3 389.7 906.7 392.3L960 395L960 301L906.7 298.3C853.3 295.7 746.7 290.3 640 289.5C533.3 288.7 426.7 292.3 320 294.2C213.3 296 106.7 296 53.3 296L0 296Z" fill="#8fccba"></path><path d="M0 541L53.3 541C106.7 541 213.3 541 320 541C426.7 541 533.3 541 640 541C746.7 541 853.3 541 906.7 541L960 541L960 393L906.7 390.3C853.3 387.7 746.7 382.3 640 380.5C533.3 378.7 426.7 380.3 320 380.3C213.3 380.3 106.7 378.7 53.3 377.8L0 377Z" fill="#fdfdfd"></path></svg>