<svg id="visual" viewBox="0 0 1080 3840" width="1080" height="3840" xmlns="http://www.w3.org/2000/svg" xmlns:xlink="http://www.w3.org/1999/xlink" version="1.1"><g stroke-width="1" stroke-linejoin="bevel"><path d="M486 2013L312 2116L602 2334Z" fill="#68b3a7" stroke="#2f4858"></path><path d="M312 2116L246 2291L602 2334Z" fill="#68b3a7" stroke="#2f4858"></path><path d="M602 2334L815 1996L486 2013Z" fill="#427e89" stroke="#2f4858"></path><path d="M246 2291L339 2532L602 2334Z" fill="#549c9c" stroke="#2f4858"></path><path d="M602 2334L743 2576L823 2260Z" fill="#4a8d93" stroke="#2f4858"></path><path d="M823 2260L815 1996L602 2334Z" fill="#3f7783" stroke="#2f4858"></path><path d="M815 1996L554 1804L486 2013Z" fill="#5aa4a0" stroke="#2f4858"></path><path d="M486 2013L256 1727L312 2116Z" fill="#427e89" stroke="#2f4858"></path><path d="M339 2532L506 2613L602 2334Z" fill="#4f9598" stroke="#2f4858"></path><path d="M506 2613L743 2576L602 2334Z" fill="#68b3a7" stroke="#2f4858"></path><path d="M0 2045L0 2296L246 2291Z" fill="#3f7783" stroke="#2f4858"></path><path d="M246 2291L0 2606L339 2532Z" fill="#68b3a7" stroke="#2f4858"></path><path d="M0 2045L246 2291L312 2116Z" fill="#46868e" stroke="#2f4858"></path><path d="M256 1727L0 2045L312 2116Z" fill="#68b3a7" stroke="#2f4858"></path><path d="M554 1804L256 1727L486 2013Z" fill="#4f9598" stroke="#2f4858"></path><path d="M1080 1724L819 1724L815 1996Z" fill="#5aa4a0" stroke="#2f4858"></path><path d="M815 1996L819 1724L554 1804Z" fill="#60aba4" stroke="#2f4858"></path><path d="M554 1804L605 1521L256 1727Z" fill="#549c9c" stroke="#2f4858"></path><path d="M1080 2368L1080 2028L823 2260Z" fill="#549c9c" stroke="#2f4858"></path><path d="M823 2260L1080 2028L815 1996Z" fill="#4a8d93" stroke="#2f4858"></path><path d="M743 2576L1080 2368L823 2260Z" fill="#46868e" stroke="#2f4858"></path><path d="M0 2296L0 2606L246 2291Z" fill="#68b3a7" stroke="#2f4858"></path><path d="M315 2832L528 2832L506 2613Z" fill="#6fbaaa" stroke="#2f4858"></path><path d="M315 2832L506 2613L339 2532Z" fill="#60aba4" stroke="#2f4858"></path><path d="M506 2613L528 2832L743 2576Z" fill="#5aa4a0" stroke="#2f4858"></path><path d="M743 2576L1080 2562L1080 2368Z" fill="#46868e" stroke="#2f4858"></path><path d="M0 2606L315 2832L339 2532Z" fill="#68b3a7" stroke="#2f4858"></path><path d="M256 1727L0 1741L0 2045Z" fill="#6fbaaa" stroke="#2f4858"></path><path d="M819 1724L605 1521L554 1804Z" fill="#60aba4" stroke="#2f4858"></path><path d="M256 1727L0 1605L0 1741Z" fill="#60aba4" stroke="#2f4858"></path><path d="M774 2855L1080 2562L743 2576Z" fill="#68b3a7" stroke="#2f4858"></path><path d="M758 3015L774 2855L528 2832Z" fill="#60aba4" stroke="#2f4858"></path><path d="M528 2832L774 2855L743 2576Z" fill="#3f7783" stroke="#2f4858"></path><path d="M605 1521L280 1487L256 1727Z" fill="#60aba4" stroke="#2f4858"></path><path d="M0 2606L0 2789L315 2832Z" fill="#60aba4" stroke="#2f4858"></path><path d="M280 1487L0 1605L256 1727Z" fill="#4a8d93" stroke="#2f4858"></path><path d="M1080 2028L1080 1724L815 1996Z" fill="#68b3a7" stroke="#2f4858"></path><path d="M819 1724L843 1480L605 1521Z" fill="#3f7783" stroke="#2f4858"></path><path d="M1080 1551L843 1480L819 1724Z" fill="#60aba4" stroke="#2f4858"></path><path d="M605 1521L498 1256L280 1487Z" fill="#4f9598" stroke="#2f4858"></path><path d="M582 3104L758 3015L528 2832Z" fill="#549c9c" stroke="#2f4858"></path><path d="M774 2855L1080 2881L1080 2562Z" fill="#60aba4" stroke="#2f4858"></path><path d="M582 3104L528 2832L315 2832Z" fill="#5aa4a0" stroke="#2f4858"></path><path d="M1080 1724L1080 1551L819 1724Z" fill="#4f9598" stroke="#2f4858"></path><path d="M758 3015L1080 2881L774 2855Z" fill="#60aba4" stroke="#2f4858"></path><path d="M213 3134L582 3104L315 2832Z" fill="#60aba4" stroke="#2f4858"></path><path d="M758 3015L1080 3028L1080 2881Z" fill="#3f7783" stroke="#2f4858"></path><path d="M777 1251L605 1521L843 1480Z" fill="#5aa4a0" stroke="#2f4858"></path><path d="M777 1251L498 1256L605 1521Z" fill="#60aba4" stroke="#2f4858"></path><path d="M280 1487L0 1270L0 1605Z" fill="#4a8d93" stroke="#2f4858"></path><path d="M498 1256L339 1257L280 1487Z" fill="#78c2ad" stroke="#2f4858"></path><path d="M0 2789L0 3033L315 2832Z" fill="#6fbaaa" stroke="#2f4858"></path><path d="M0 3033L213 3134L315 2832Z" fill="#78c2ad" stroke="#2f4858"></path><path d="M1080 1248L777 1251L843 1480Z" fill="#427e89" stroke="#2f4858"></path><path d="M498 1256L296 1057L339 1257Z" fill="#5aa4a0" stroke="#2f4858"></path><path d="M771 3277L1080 3028L758 3015Z" fill="#427e89" stroke="#2f4858"></path><path d="M339 1257L0 1270L280 1487Z" fill="#3f7783" stroke="#2f4858"></path><path d="M315 3317L556 3262L582 3104Z" fill="#6fbaaa" stroke="#2f4858"></path><path d="M582 3104L771 3277L758 3015Z" fill="#3f7783" stroke="#2f4858"></path><path d="M556 3262L771 3277L582 3104Z" fill="#68b3a7" stroke="#2f4858"></path><path d="M1080 1551L1080 1248L843 1480Z" fill="#46868e" stroke="#2f4858"></path><path d="M0 3304L315 3317L213 3134Z" fill="#3f7783" stroke="#2f4858"></path><path d="M213 3134L315 3317L582 3104Z" fill="#4a8d93" stroke="#2f4858"></path><path d="M556 3262L609 3570L771 3277Z" fill="#5aa4a0" stroke="#2f4858"></path><path d="M745 1076L597 1058L777 1251Z" fill="#4a8d93" stroke="#2f4858"></path><path d="M777 1251L597 1058L498 1256Z" fill="#46868e" stroke="#2f4858"></path><path d="M339 1257L296 1057L0 1270Z" fill="#68b3a7" stroke="#2f4858"></path><path d="M1080 1248L745 1076L777 1251Z" fill="#68b3a7" stroke="#2f4858"></path><path d="M597 1058L296 1057L498 1256Z" fill="#427e89" stroke="#2f4858"></path><path d="M0 3033L0 3304L213 3134Z" fill="#427e89" stroke="#2f4858"></path><path d="M771 3277L1080 3353L1080 3028Z" fill="#6fbaaa" stroke="#2f4858"></path><path d="M822 3549L1080 3353L771 3277Z" fill="#78c2ad" stroke="#2f4858"></path><path d="M609 3570L556 3262L315 3317Z" fill="#46868e" stroke="#2f4858"></path><path d="M310 731L0 960L296 1057Z" fill="#549c9c" stroke="#2f4858"></path><path d="M296 1057L0 960L0 1270Z" fill="#3f7783" stroke="#2f4858"></path><path d="M525 766L296 1057L597 1058Z" fill="#60aba4" stroke="#2f4858"></path><path d="M1080 1248L1080 973L745 1076Z" fill="#6fbaaa" stroke="#2f4858"></path><path d="M772 705L525 766L597 1058Z" fill="#4a8d93" stroke="#2f4858"></path><path d="M0 3304L229 3548L315 3317Z" fill="#68b3a7" stroke="#2f4858"></path><path d="M229 3548L609 3570L315 3317Z" fill="#46868e" stroke="#2f4858"></path><path d="M609 3570L822 3549L771 3277Z" fill="#6fbaaa" stroke="#2f4858"></path><path d="M772 705L597 1058L745 1076Z" fill="#549c9c" stroke="#2f4858"></path><path d="M0 3304L0 3572L229 3548Z" fill="#60aba4" stroke="#2f4858"></path><path d="M229 3548L599 3840L609 3570Z" fill="#4f9598" stroke="#2f4858"></path><path d="M525 766L310 731L296 1057Z" fill="#427e89" stroke="#2f4858"></path><path d="M310 731L0 789L0 960Z" fill="#4f9598" stroke="#2f4858"></path><path d="M551 479L216 531L310 731Z" fill="#60aba4" stroke="#2f4858"></path><path d="M1080 973L772 705L745 1076Z" fill="#3f7783" stroke="#2f4858"></path><path d="M1080 973L1080 773L772 705Z" fill="#46868e" stroke="#2f4858"></path><path d="M778 3840L822 3549L609 3570Z" fill="#60aba4" stroke="#2f4858"></path><path d="M778 3840L1080 3649L822 3549Z" fill="#68b3a7" stroke="#2f4858"></path><path d="M822 3549L1080 3649L1080 3353Z" fill="#427e89" stroke="#2f4858"></path><path d="M222 3840L599 3840L229 3548Z" fill="#549c9c" stroke="#2f4858"></path><path d="M1080 527L771 562L772 705Z" fill="#68b3a7" stroke="#2f4858"></path><path d="M772 705L771 562L525 766Z" fill="#68b3a7" stroke="#2f4858"></path><path d="M310 731L216 531L0 789Z" fill="#3f7783" stroke="#2f4858"></path><path d="M0 3572L222 3840L229 3548Z" fill="#549c9c" stroke="#2f4858"></path><path d="M599 3840L778 3840L609 3570Z" fill="#4a8d93" stroke="#2f4858"></path><path d="M551 479L310 731L525 766Z" fill="#78c2ad" stroke="#2f4858"></path><path d="M0 3572L0 3840L222 3840Z" fill="#549c9c" stroke="#2f4858"></path><path d="M771 562L551 479L525 766Z" fill="#6fbaaa" stroke="#2f4858"></path><path d="M778 3840L1080 3840L1080 3649Z" fill="#4f9598" stroke="#2f4858"></path><path d="M0 317L0 494L216 531Z" fill="#4f9598" stroke="#2f4858"></path><path d="M216 531L0 494L0 789Z" fill="#4f9598" stroke="#2f4858"></path><path d="M771 562L778 252L551 479Z" fill="#4f9598" stroke="#2f4858"></path><path d="M1080 773L1080 527L772 705Z" fill="#5aa4a0" stroke="#2f4858"></path><path d="M551 479L237 281L216 531Z" fill="#427e89" stroke="#2f4858"></path><path d="M472 191L237 281L551 479Z" fill="#78c2ad" stroke="#2f4858"></path><path d="M237 281L0 317L216 531Z" fill="#549c9c" stroke="#2f4858"></path><path d="M1080 527L778 252L771 562Z" fill="#4a8d93" stroke="#2f4858"></path><path d="M778 252L472 191L551 479Z" fill="#6fbaaa" stroke="#2f4858"></path><path d="M237 281L0 0L0 317Z" fill="#5aa4a0" stroke="#2f4858"></path><path d="M1080 527L1080 211L778 252Z" fill="#46868e" stroke="#2f4858"></path><path d="M778 252L584 0L472 191Z" fill="#3f7783" stroke="#2f4858"></path><path d="M874 0L584 0L778 252Z" fill="#46868e" stroke="#2f4858"></path><path d="M472 191L221 0L237 281Z" fill="#78c2ad" stroke="#2f4858"></path><path d="M584 0L221 0L472 191Z" fill="#46868e" stroke="#2f4858"></path><path d="M1080 211L874 0L778 252Z" fill="#46868e" stroke="#2f4858"></path><path d="M221 0L0 0L237 281Z" fill="#4f9598" stroke="#2f4858"></path><path d="M1080 211L1080 0L874 0Z" fill="#5aa4a0" stroke="#2f4858"></path></g></svg>