<svg xmlns="http://www.w3.org/2000/svg" xmlns:xlink="http://www.w3.org/1999/xlink" id="wave" version="1.1" viewBox="0 0 1440 110" style="transform:rotate(180deg);transition:.3s"><defs><linearGradient id="sw-gradient-0" x1="0" x2="0" y1="1" y2="0"><stop offset="0%" stop-color="rgba(120, 194, 173, 1)"/><stop offset="100%" stop-color="rgba(120, 194, 173, 1)"/></linearGradient></defs><path style="transform:translate(0,0);opacity:1" fill="url(#sw-gradient-0)" d="M0,0L18.5,0C36.9,0,74,0,111,14.7C147.7,29,185,59,222,62.3C258.5,66,295,44,332,31.2C369.2,18,406,15,443,20.2C480,26,517,40,554,40.3C590.8,40,628,26,665,29.3C701.5,33,738,55,775,69.7C812.3,84,849,92,886,82.5C923.1,73,960,48,997,44C1033.8,40,1071,59,1108,55C1144.6,51,1182,26,1218,27.5C1255.4,29,1292,59,1329,67.8C1366.2,77,1403,66,1440,58.7C1476.9,51,1514,48,1551,44C1587.7,40,1625,37,1662,29.3C1698.5,22,1735,11,1772,5.5C1809.2,0,1846,0,1883,16.5C1920,33,1957,66,1994,66C2030.8,66,2068,33,2105,31.2C2141.5,29,2178,59,2215,64.2C2252.3,70,2289,51,2326,40.3C2363.1,29,2400,26,2437,36.7C2473.8,48,2511,73,2548,80.7C2584.6,88,2622,77,2640,71.5L2658.5,66L2658.5,110L2640,110C2621.5,110,2585,110,2548,110C2510.8,110,2474,110,2437,110C2400,110,2363,110,2326,110C2289.2,110,2252,110,2215,110C2178.5,110,2142,110,2105,110C2067.7,110,2031,110,1994,110C1956.9,110,1920,110,1883,110C1846.2,110,1809,110,1772,110C1735.4,110,1698,110,1662,110C1624.6,110,1588,110,1551,110C1513.8,110,1477,110,1440,110C1403.1,110,1366,110,1329,110C1292.3,110,1255,110,1218,110C1181.5,110,1145,110,1108,110C1070.8,110,1034,110,997,110C960,110,923,110,886,110C849.2,110,812,110,775,110C738.5,110,702,110,665,110C627.7,110,591,110,554,110C516.9,110,480,110,443,110C406.2,110,369,110,332,110C295.4,110,258,110,222,110C184.6,110,148,110,111,110C73.8,110,37,110,18,110L0,110Z"/></svg>