<svg xmlns="http://www.w3.org/2000/svg" xmlns:xlink="http://www.w3.org/1999/xlink" id="wave" version="1.1" viewBox="0 0 1440 490" style="transform:rotate(180deg);transition:.3s"><defs><linearGradient id="sw-gradient-0" x1="0" x2="0" y1="1" y2="0"><stop offset="100%" stop-color="#78c2ad"/></linearGradient></defs><path style="transform:translate(0,0);opacity:1" fill="url(#sw-gradient-0)" d="M0,343L60,359.3C120,376,240,408,360,400.2C480,392,600,343,720,318.5C840,294,960,294,1080,310.3C1200,327,1320,359,1440,334.8C1560,310,1680,229,1800,196C1920,163,2040,180,2160,179.7C2280,180,2400,163,2520,204.2C2640,245,2760,343,2880,359.3C3000,376,3120,310,3240,269.5C3360,229,3480,212,3600,220.5C3720,229,3840,261,3960,269.5C4080,278,4200,261,4320,253.2C4440,245,4560,245,4680,204.2C4800,163,4920,82,5040,40.8C5160,0,5280,0,5400,40.8C5520,82,5640,163,5760,187.8C5880,212,6000,180,6120,171.5C6240,163,6360,180,6480,220.5C6600,261,6720,327,6840,367.5C6960,408,7080,425,7200,408.3C7320,392,7440,343,7560,318.5C7680,294,7800,294,7920,261.3C8040,229,8160,163,8280,122.5C8400,82,8520,65,8580,57.2L8640,49L8640,490L8580,490C8520,490,8400,490,8280,490C8160,490,8040,490,7920,490C7800,490,7680,490,7560,490C7440,490,7320,490,7200,490C7080,490,6960,490,6840,490C6720,490,6600,490,6480,490C6360,490,6240,490,6120,490C6000,490,5880,490,5760,490C5640,490,5520,490,5400,490C5280,490,5160,490,5040,490C4920,490,4800,490,4680,490C4560,490,4440,490,4320,490C4200,490,4080,490,3960,490C3840,490,3720,490,3600,490C3480,490,3360,490,3240,490C3120,490,3000,490,2880,490C2760,490,2640,490,2520,490C2400,490,2280,490,2160,490C2040,490,1920,490,1800,490C1680,490,1560,490,1440,490C1320,490,1200,490,1080,490C960,490,840,490,720,490C600,490,480,490,360,490C240,490,120,490,60,490L0,490Z"/></svg>