<svg xmlns="http://www.w3.org/2000/svg" xmlns:xlink="http://www.w3.org/1999/xlink" id="wave" version="1.1" viewBox="0 0 1440 110" style="transform:rotate(180deg);transition:.3s"><defs><linearGradient id="sw-gradient-0" x1="0" x2="0" y1="1" y2="0"><stop offset="0%" stop-color="rgba(120, 194, 173, 1)"/><stop offset="100%" stop-color="rgba(120, 194, 173, 1)"/></linearGradient></defs><path style="transform:translate(0,0);opacity:1" fill="url(#sw-gradient-0)" d="M0,0L34.3,0C68.6,0,137,0,206,14.7C274.3,29,343,59,411,62.3C480,66,549,44,617,31.2C685.7,18,754,15,823,20.2C891.4,26,960,40,1029,40.3C1097.1,40,1166,26,1234,29.3C1302.9,33,1371,55,1440,69.7C1508.6,84,1577,92,1646,82.5C1714.3,73,1783,48,1851,44C1920,40,1989,59,2057,55C2125.7,51,2194,26,2263,27.5C2331.4,29,2400,59,2469,67.8C2537.1,77,2606,66,2674,58.7C2742.9,51,2811,48,2880,44C2948.6,40,3017,37,3086,29.3C3154.3,22,3223,11,3291,5.5C3360,0,3429,0,3497,16.5C3565.7,33,3634,66,3703,66C3771.4,66,3840,33,3909,31.2C3977.1,29,4046,59,4114,64.2C4182.9,70,4251,51,4320,40.3C4388.6,29,4457,26,4526,36.7C4594.3,48,4663,73,4731,80.7C4800,88,4869,77,4903,71.5L4937.1,66L4937.1,110L4902.9,110C4868.6,110,4800,110,4731,110C4662.9,110,4594,110,4526,110C4457.1,110,4389,110,4320,110C4251.4,110,4183,110,4114,110C4045.7,110,3977,110,3909,110C3840,110,3771,110,3703,110C3634.3,110,3566,110,3497,110C3428.6,110,3360,110,3291,110C3222.9,110,3154,110,3086,110C3017.1,110,2949,110,2880,110C2811.4,110,2743,110,2674,110C2605.7,110,2537,110,2469,110C2400,110,2331,110,2263,110C2194.3,110,2126,110,2057,110C1988.6,110,1920,110,1851,110C1782.9,110,1714,110,1646,110C1577.1,110,1509,110,1440,110C1371.4,110,1303,110,1234,110C1165.7,110,1097,110,1029,110C960,110,891,110,823,110C754.3,110,686,110,617,110C548.6,110,480,110,411,110C342.9,110,274,110,206,110C137.1,110,69,110,34,110L0,110Z"/></svg>